<?xml version="1.0" encoding="UTF-8"?>
<!DOCTYPE svg PUBLIC "-//W3C//DTD SVG 1.1//EN" "http://www.w3.org/Graphics/SVG/1.1/DTD/svg11.dtd">
<!-- Creator: CorelDRAW -->
<svg xmlns="http://www.w3.org/2000/svg" xml:space="preserve" width="7.98669in" height="5.99002in" style="shape-rendering:geometricPrecision; text-rendering:geometricPrecision; image-rendering:optimizeQuality; fill-rule:evenodd; clip-rule:evenodd"
viewBox="0 0 7.98669 5.99002"
 xmlns:xlink="http://www.w3.org/1999/xlink">
 <defs>
  <style type="text/css">
   <![CDATA[
    .str0 {stroke:#1F1A17;stroke-width:0.005}
    .str1 {stroke:#44916C;stroke-width:0.0138858}
    .fil2 {fill:none}
    .fil1 {fill:#44916C}
    .fil0 {fill:#28166F;fill-rule:nonzero}
   ]]>
  </style>
 </defs>
 <g id="Layer_x0020_1">
  <metadata id="CorelCorpID_0Corel-Layer"/>
  <g>
   <path class="fil0" d="M5.76519 3.0438l-3.75941 -0.0294331 0.000110236 -0.0138346 3.75941 0.0294331 -0.000110236 0.0138346zm-0.00542913 -0.0435591l0.0662402 0.0371142 -0.066811 0.0360748 0.000570866 -0.073189z"/>
  </g>
  <g>
   <path class="fil0" d="M3.89172 0.985925l-0.073189 -0.000625984 0.0371614 -0.0662126 0.0360276 0.0668386zm-0.0748504 3.68641l0.0313898 -3.69255 0.0138346 0.000110236 -0.0313898 3.69255 -0.0138346 -0.000110236z"/>
  </g>
  <circle class="fil1 str0" cx="2.39583" cy="4.17698" r="0.0448476"/>
  <circle class="fil1 str0" cx="5.28134" cy="1.25199" r="0.0448476"/>
  <path class="fil2 str1" d="M2.40504 4.14278c0,-0.0526378 0,-0.18424 0.0131575,-0.236878l0.0131614 0c0.0263189,-0.10528 0.0394803,-0.328996 0.157917,-0.368476 0.0131614,-0.0394803 0.0657992,-0.0657992 0.092122,-0.0921181 0.10528,0 0.210555,0.0394764 0.250035,0.131598 0.0263228,0 0.092122,0.0789567 0.10528,0.0921181l0.14476 0c0.0131614,-0.0131614 0.0263189,-0.0263189 0.0526378,-0.0263189 0.157921,-0.315839 0.131602,-0.684315 0.276358,-1.00015l0 -0.0263189c0.10528,-0.0789606 0.302677,-0.18424 0.447437,-0.131598 0.171079,0.0657992 0.28952,0.236878 0.342157,0.407957 0.10528,0.289516 0.10528,0.421114 0.473756,0.421114 0.0131614,-0.0131575 0.0526378,-0.0526378 0.0526378,-0.0657992 0.250039,-0.552713 0.14476,-1.22387 0.355319,-1.77658l0 -0.0394803 0.0131614 0c0,-0.0131614 0,-0.0526417 0.0263189,-0.0526417l0 -0.0263189 0.0131575 0 0 -0.0131575 0 -0.0131614 0.0131614 0 0.0131614 -0.0394803"/>
 </g>
</svg>
