<?xml version="1.0" encoding="UTF-8"?>
<!DOCTYPE svg PUBLIC "-//W3C//DTD SVG 1.1//EN" "http://www.w3.org/Graphics/SVG/1.1/DTD/svg11.dtd">
<!-- Creator: CorelDRAW -->
<svg xmlns="http://www.w3.org/2000/svg" xml:space="preserve" width="7.98669in" height="5.99002in" style="shape-rendering:geometricPrecision; text-rendering:geometricPrecision; image-rendering:optimizeQuality; fill-rule:evenodd; clip-rule:evenodd"
viewBox="0 0 7.98669 5.99002"
 xmlns:xlink="http://www.w3.org/1999/xlink">
 <defs>
  <style type="text/css">
   <![CDATA[
    .str0 {stroke:#72706F;stroke-width:0.025}
    .str1 {stroke:#007CC3;stroke-width:0.028}
    .str3 {stroke:#449284;stroke-width:0.028}
    .str4 {stroke:#974578;stroke-width:0.028}
    .str2 {stroke:#DD137B;stroke-width:0.028}
    .fil0 {fill:none}
   ]]>
  </style>
 </defs>
 <g id="Layer_x0020_1">
  <metadata id="CorelCorpID_0Corel-Layer"/>
  <line class="fil0 str0" x1="0.222795" y1="3.30946" x2="3.04643" y2= "3.31235" />
  <line class="fil0 str0" x1="0.222795" y1="3.96078" x2="3.04643" y2= "3.9636" />
  <line class="fil0 str0" x1="0.222795" y1="4.61142" x2="3.04643" y2= "4.60648" />
  <line class="fil0 str0" x1="0.222795" y1="2.01284" x2="3.04643" y2= "2.01124" />
  <line class="fil0 str0" x1="0.222799" y1="2.66312" x2="3.04643" y2= "2.66152" />
  <line class="fil0 str0" x1="0.222366" y1="1.36637" x2="3.04615" y2= "1.36815" />
  <line class="fil0 str1" x1="2.69515" y1="1.13893" x2="2.69515" y2= "4.97421" />
  <line class="fil0 str2" x1="1.9936" y1="1.13893" x2="1.9936" y2= "4.97421" />
  <line class="fil0 str3" x1="1.29625" y1="1.13893" x2="1.29625" y2= "4.97421" />
  <line class="fil0 str4" x1="0.59052" y1="1.1385" x2="0.59052" y2= "4.97348" />
  <line class="fil0 str0" x1="4.07378" y1="3.66502" x2="6.89602" y2= "2.79187" />
  <line class="fil0 str0" x1="3.7604" y1="4.41361" x2="6.58267" y2= "3.54039" />
  <line class="fil0 str0" x1="3.44735" y1="5.16142" x2="6.27336" y2= "4.27928" />
  <line class="fil0 str0" x1="4.69765" y1="2.17475" x2="7.52204" y2= "1.29645" />
  <line class="fil0 str0" x1="4.38477" y1="2.92215" x2="7.20917" y2= "2.04385" />
  <line class="fil0 str0" x1="5.00826" y1="1.43186" x2="7.83119" y2= "0.557394" />
  <line class="fil0 str1" x1="7.59047" y1="0.402902" x2="5.74515" y2= "4.81097" />
  <line class="fil0 str2" x1="6.88893" y1="0.620661" x2="5.0436" y2= "5.02873" />
  <line class="fil0 str3" x1="6.19157" y1="0.837122" x2="4.34625" y2= "5.24519" />
  <line class="fil0 str4" x1="5.48606" y1="1.05568" x2="3.64087" y2= "5.46341" />
 </g>
</svg>
