<?xml version="1.0" encoding="UTF-8"?>
<!DOCTYPE svg PUBLIC "-//W3C//DTD SVG 1.1//EN" "http://www.w3.org/Graphics/SVG/1.1/DTD/svg11.dtd">
<!-- Creator: CorelDRAW -->
<svg xmlns="http://www.w3.org/2000/svg" xml:space="preserve" width="4808px" height="3606px" style="shape-rendering:geometricPrecision; text-rendering:geometricPrecision; image-rendering:optimizeQuality; fill-rule:evenodd; clip-rule:evenodd"
viewBox="0 0 4808 3606"
 xmlns:xlink="http://www.w3.org/1999/xlink">
 <defs>
  <style type="text/css">
   <![CDATA[
    .str2 {stroke:#1F1A17;stroke-width:1.80601}
    .str1 {stroke:#EF9BA0;stroke-width:1.80601}
    .str0 {stroke:#FFFCC8;stroke-width:1.80601}
    .fil1 {fill:#EF9BA0}
    .fil0 {fill:#FFFCC8}
    .fil2 {fill:#007CC3;fill-rule:nonzero}
   ]]>
  </style>
 </defs>
 <g id="Layer_x0020_1">
  <metadata id="CorelCorpID_0Corel-Layer"/>
  <rect class="fil0 str0" transform="matrix(1.3893 0 0.456211 0.920034 1290.09 345.267)" width="2067.4" height="897.962"/>
  <rect class="fil0 str0" transform="matrix(1.3893 0 -1.50109 1.38884 1699.69 1171.48)" width="2067.4" height="897.962"/>
  <rect class="fil1 str1" transform="matrix(1.3893 0 -1.04244 2.30522 1288.97 345.267)" width="2067.4" height="897.962"/>
  <g>
   <path class="fil2" d="M3165.74 2428.01l-2816.57 0.0426616 0 -16.657 2816.57 -0.0426616 0 16.657zm58.598 -8.32848l-116.599 49.9733 1.51449 -3.12377 1.41494 -3.12377 1.31777 -3.12377 1.21822 -3.1214 1.12342 -3.12377 1.02388 -3.12377 0.926704 -3.12377 0.82953 -3.1214 0.732357 -3.12377 0.635183 -3.12377 0.53564 -3.12377 0.440836 -3.1214 0.341292 -3.12377 0.244119 -3.12377 0.144575 -3.12377 0.0497718 -3.1214 -0.0497718 -3.12377 -0.144575 -3.12377 -0.244119 -3.12377 -0.343663 -3.1214 -0.438466 -3.12377 -0.53564 -3.12377 -0.635183 -3.12377 -0.732357 -3.1214 -0.82953 -3.12377 -0.926704 -3.12377 -1.02625 -3.12377 -1.12105 -3.1214 -1.22059 -3.12377 -1.31777 -3.12377 -1.41494 -3.12377 -1.51212 -3.1214 0 0 116.599 49.9685z"/>
  </g>
  <g>
   <path class="fil2" d="M4516.41 1217.51l-1306.26 1208.28 -11.3006 -12.2154 1306.26 -1208.28 11.3006 12.2154zm37.3241 -45.8588l-51.611 115.743 -1.00966 -3.31575 -1.08076 -3.25176 -1.15186 -3.18303 -1.22533 -3.11903 -1.29407 -3.0503 -1.36754 -2.98631 -1.43864 -2.91995 -1.50975 -2.85358 -1.58322 -2.78722 -1.65195 -2.72086 -1.72542 -2.6545 -1.79653 -2.58813 -1.86763 -2.52177 -1.9411 -2.45541 -2.00983 -2.38905 -2.08331 -2.32505 -2.15441 -2.25632 -2.22788 -2.19233 -2.29661 -2.1236 -2.37009 -2.05961 -2.43882 -1.99324 -2.51229 -1.92451 -2.58576 -1.86052 -2.6545 -1.79416 -2.72797 -1.72779 -2.7967 -1.66143 -2.87017 -1.59507 -2.94365 -1.52871 -3.01238 -1.46471 -3.08585 -1.39598 -3.15696 -1.32962 -3.22569 -1.26563 0 0 119.407 -42.4482z"/>
  </g>
  <g>
   <path class="fil2" d="M4177.04 393.098l384.141 774.675 -14.96 7.38045 -384.141 -774.675 14.96 -7.38045zm-33.5486 -48.883l96.7066 82.3795 -3.47692 0.0308111 -3.42952 0.120874 -3.38922 0.206198 -3.34419 0.296261 -3.30153 0.381584 -3.25887 0.469277 -3.21384 0.55934 -3.17118 0.644664 -3.12851 0.732357 -3.08348 0.82005 -3.04082 0.907743 -2.99816 0.995436 -2.95313 1.08313 -2.91047 1.17082 -2.8678 1.25852 -2.82277 1.34384 -2.78248 1.4339 -2.73508 1.5216 -2.69479 1.60692 -2.64976 1.69698 -2.6071 1.78468 -2.56206 1.87 -2.5194 1.95769 -2.47674 2.04775 -2.43408 2.13308 -2.38905 2.22077 -2.34639 2.30846 -2.30135 2.39616 -2.26106 2.48622 -2.21603 2.57154 -2.171 2.65924 -2.12834 2.74456 0 0 -7.04153 -126.84z"/>
  </g>
  <g>
   <path class="fil2" d="M4126.89 401.147l-914.567 2021.9 -15.2207 -6.85903 914.567 -2021.9 15.2207 6.85903zm16.593 -56.9413l-2.52888 127.12 -2.22788 -2.67109 -2.26817 -2.58339 -2.30609 -2.49333 -2.34876 -2.40327 -2.38905 -2.31557 -2.42934 -2.22551 -2.46726 -2.13782 -2.50992 -2.04775 -2.55021 -1.95769 -2.5905 -1.87 -2.6308 -1.77993 -2.67109 -1.69224 -2.70901 -1.59981 -2.75167 -1.51449 -2.79196 -1.42442 -2.83225 -1.33436 -2.87254 -1.2443 -2.91284 -1.1566 -2.95313 -1.06654 -2.99105 -0.978846 -3.03371 -0.888782 -3.074 -0.801089 -3.11429 -0.711026 -3.15459 -0.620963 -3.19488 -0.533269 -3.23517 -0.443206 -3.27546 -0.353143 -3.31575 -0.26545 -3.35604 -0.175386 -3.39633 -0.0876932 -3.43663 0.00237009 -3.47692 0.0924334 0 0 93.7962 -85.8374z"/>
  </g>
  <polygon class="fil0 str2" points="353.752,2413.71 1698.39,1171.78 1287.88,348.173 "/>
  <g>
   <path class="fil2" d="M1271.73 401.147l-914.567 2021.9 -15.2207 -6.85903 914.567 -2021.9 15.2207 6.85903zm16.593 -56.9413l-2.52888 127.12 -2.22788 -2.67109 -2.26817 -2.58339 -2.30609 -2.49333 -2.34876 -2.40327 -2.38905 -2.31557 -2.42934 -2.22551 -2.46726 -2.13782 -2.50992 -2.04775 -2.55021 -1.95769 -2.5905 -1.87 -2.6308 -1.77993 -2.67109 -1.69224 -2.70901 -1.59981 -2.75167 -1.51449 -2.79196 -1.42442 -2.83225 -1.33436 -2.87254 -1.2443 -2.91284 -1.1566 -2.95313 -1.06654 -2.99105 -0.978846 -3.03371 -0.888782 -3.074 -0.801089 -3.11429 -0.711026 -3.15459 -0.620963 -3.19488 -0.533269 -3.23517 -0.443206 -3.27546 -0.353143 -3.31575 -0.26545 -3.35604 -0.175386 -3.39633 -0.0876932 -3.43663 0.00237009 -3.47692 0.0924334 0 0 93.7962 -85.8374z"/>
  </g>
  <g>
   <path class="fil2" d="M1661.25 1217.51l-1306.26 1208.28 -11.3006 -12.2154 1306.26 -1208.28 11.3006 12.2154zm37.3241 -45.8588l-51.611 115.743 -1.00966 -3.31575 -1.08076 -3.25176 -1.15186 -3.18303 -1.22533 -3.11903 -1.29407 -3.0503 -1.36754 -2.98631 -1.43864 -2.91995 -1.50975 -2.85358 -1.58322 -2.78722 -1.65195 -2.72086 -1.72542 -2.6545 -1.79653 -2.58813 -1.86763 -2.52177 -1.9411 -2.45541 -2.00983 -2.38905 -2.08331 -2.32505 -2.15441 -2.25632 -2.22788 -2.19233 -2.29661 -2.1236 -2.37009 -2.05961 -2.43882 -1.99324 -2.51229 -1.92451 -2.58576 -1.86052 -2.6545 -1.79416 -2.72797 -1.72779 -2.7967 -1.66143 -2.87017 -1.59507 -2.94365 -1.52871 -3.01238 -1.46471 -3.08585 -1.39598 -3.15696 -1.32962 -3.22569 -1.26563 0 0 119.407 -42.4482z"/>
  </g>
  <g>
   <path class="fil2" d="M1321.88 393.098l384.141 774.675 -14.96 7.38045 -384.141 -774.675 14.96 -7.38045zm-33.5486 -48.883l96.7066 82.3795 -3.47692 0.0308111 -3.42952 0.120874 -3.38922 0.206198 -3.34419 0.296261 -3.30153 0.381584 -3.25887 0.469277 -3.21384 0.55934 -3.17118 0.644664 -3.12851 0.732357 -3.08348 0.82005 -3.04082 0.907743 -2.99816 0.995436 -2.95313 1.08313 -2.91047 1.17082 -2.8678 1.25852 -2.82277 1.34384 -2.78248 1.4339 -2.73508 1.5216 -2.69479 1.60692 -2.64976 1.69698 -2.6071 1.78468 -2.56206 1.87 -2.5194 1.95769 -2.47674 2.04775 -2.43408 2.13308 -2.38905 2.22077 -2.34639 2.30846 -2.30135 2.39616 -2.26106 2.48622 -2.21603 2.57154 -2.171 2.65924 -2.12834 2.74456 0 0 -7.04153 -126.84z"/>
  </g>
 </g>
</svg>
